<?xml version="1.0" standalone="no"?>
<!DOCTYPE svg PUBLIC "-//W3C//DTD SVG 20010904//EN"
 "http://www.w3.org/TR/2001/REC-SVG-20010904/DTD/svg10.dtd">
<svg version="1.0" xmlns="http://www.w3.org/2000/svg"
 width="512.000000pt" height="182.000000pt" viewBox="0 0 512.000000 182.000000"
 preserveAspectRatio="xMidYMid meet">

<g transform="translate(0.000000,182.000000) scale(0.100000,-0.100000)"
fill="#000000" stroke="none">
<path d="M0 910 l0 -910 2560 0 2560 0 0 910 0 910 -2560 0 -2560 0 0 -910z
m1635 468 c-8 -40 -44 -96 -97 -154 l-40 -44 57 -62 c61 -67 105 -143 105
-180 0 -33 -49 -113 -110 -181 l-52 -58 51 -54 c48 -51 90 -122 91 -154 0 -7
-21 10 -46 38 -45 50 -47 51 -105 51 -33 0 -59 4 -59 10 0 6 17 10 38 10 21 0
42 3 45 7 9 8 -32 53 -48 53 -11 0 -105 -103 -105 -114 0 -3 43 -6 95 -6 57 0
95 -4 95 -10 0 -6 -44 -10 -111 -10 -95 0 -114 -3 -125 -17 -12 -17 -13 -17
-14 3 0 24 45 97 95 153 l37 41 -63 72 c-62 73 -98 136 -99 173 0 30 51 112
110 178 58 64 59 55 -13 135 -53 59 -94 160 -49 119 15 -14 40 -17 125 -17 65
0 107 -4 107 -10 0 -6 -39 -10 -96 -10 -53 0 -94 -4 -92 -9 6 -16 96 -111 105
-111 5 0 19 14 31 30 l23 30 -46 0 c-68 0 -54 19 17 22 62 3 62 3 102 55 23
28 42 52 44 52 2 1 1 -14 -3 -31z m-513 -37 c15 -17 28 -41 28 -53 0 -12 17
-39 37 -60 29 -30 45 -38 73 -38 61 0 67 -17 8 -23 -41 -4 -59 -2 -78 12 -14
10 -39 25 -56 34 -19 10 -34 27 -39 44 -11 47 -23 53 -96 53 -73 0 -89 -11
-89 -59 0 -13 -14 -30 -38 -45 -113 -71 -155 -218 -95 -332 l21 -40 -25 -162
c-19 -122 -23 -165 -14 -176 12 -15 118 -56 144 -56 9 0 45 48 89 121 40 67
80 126 89 132 11 7 27 2 59 -19 55 -37 125 -39 170 -5 35 25 40 14 8 -16 -42
-38 -68 -45 -146 -41 l-76 3 -66 -110 c-60 -100 -70 -111 -103 -119 -50 -13
-169 24 -209 64 -34 35 -35 52 -7 232 l22 138 -22 49 c-33 78 -30 181 10 259
27 55 98 132 121 132 4 0 8 7 8 15 0 31 32 77 63 91 22 10 56 13 106 11 69 -4
77 -7 103 -36z m924 4 c13 -13 27 -38 30 -55 4 -16 10 -30 13 -30 4 0 25 -15
47 -34 102 -87 136 -249 78 -371 -16 -34 -16 -42 8 -190 32 -206 29 -215 -103
-261 -84 -29 -128 -26 -156 10 -10 14 -44 67 -76 120 -55 91 -59 95 -83 86
-61 -24 -150 -5 -189 40 l-20 22 35 -21 c60 -36 110 -28 192 31 24 17 36 4
117 -132 56 -93 77 -120 93 -120 28 0 135 39 148 54 6 8 1 66 -16 175 l-25
162 23 47 c54 111 17 245 -89 324 -43 31 -53 44 -53 68 0 38 -23 50 -93 50
-59 0 -80 -14 -92 -62 -11 -42 -100 -88 -167 -87 l-53 1 44 10 c61 14 131 73
131 111 0 16 10 38 25 52 22 23 32 25 115 25 83 0 93 -2 116 -25z m1075 -166
c66 -14 126 -67 138 -121 l9 -38 -43 0 c-37 0 -44 3 -49 25 -17 67 -147 87
-205 31 -74 -71 -63 -224 21 -276 69 -44 193 -8 193 56 0 28 -1 29 -57 32
l-58 3 0 34 0 35 100 0 100 0 0 -125 0 -125 -26 0 c-15 0 -32 7 -39 16 -10 15
-14 15 -45 -1 -25 -13 -51 -16 -110 -13 -65 2 -83 7 -118 32 -61 42 -92 111
-92 200 1 130 57 210 165 237 44 10 59 10 116 -2z m-331 -39 l0 -39 -127 -3
-128 -3 -3 -47 -3 -47 123 -3 123 -3 3 -42 3 -43 -126 0 -126 0 3 -57 3 -58
135 -3 135 -3 -3 -39 -4 -40 -179 0 -179 0 0 235 0 235 175 0 175 0 0 -40z
m610 -162 l-2 -193 106 -3 106 -3 0 -30 0 -30 -140 3 -141 3 -2 223 -2 222 38
0 38 0 -1 -192z m555 0 c43 -106 85 -208 92 -225 l13 -33 -39 0 c-38 0 -39 1
-64 63 l-25 62 -90 3 -90 3 -23 -66 c-23 -65 -23 -65 -61 -65 l-38 0 19 48
c10 26 49 127 86 225 l68 177 37 0 37 0 78 -192z m383 173 c59 -30 78 -91 47
-151 -9 -17 -20 -30 -26 -30 -6 0 6 -15 25 -34 32 -30 36 -39 36 -84 0 -40 -6
-57 -26 -81 -33 -40 -77 -51 -206 -51 l-108 0 0 225 0 225 110 0 c90 0 118 -4
148 -19z m-3310 -61 l23 -30 -46 0 -46 0 18 30 c9 17 20 30 23 30 4 0 16 -13
28 -30z m932 16 c6 -8 10 -25 8 -38 -6 -42 -78 -32 -78 11 0 37 46 55 70 27z
m-1032 -140 l-3 -24 -33 23 -33 23 33 20 c32 21 33 21 36 2 2 -11 2 -31 0 -44z
m185 41 l27 -22 -35 -23 -35 -22 0 45 c0 25 3 45 8 45 4 0 19 -10 35 -23z
m757 9 c6 -8 10 -25 8 -38 -6 -42 -78 -32 -78 11 0 37 46 55 70 27z m180 0 c6
-8 10 -25 8 -38 -6 -42 -78 -32 -78 11 0 37 46 55 70 27z m-90 -90 c6 -8 10
-25 8 -38 -6 -42 -78 -32 -78 11 0 37 46 55 70 27z m-932 -41 l-23 -35 -22 27
c-13 16 -23 31 -23 36 0 4 20 7 45 7 l45 0 -22 -35z m1465 -262 c-40 -5 -46
-33 -8 -33 14 0 25 -4 25 -10 0 -5 -11 -10 -25 -10 -16 0 -25 -6 -25 -15 0
-10 10 -15 30 -15 17 0 30 -5 30 -11 0 -6 -16 -9 -37 -7 l-38 3 -3 53 -3 52
43 -2 c37 -1 38 -2 11 -5z m84 -35 l17 -42 18 44 c10 23 21 41 24 38 5 -6 -24
-88 -37 -102 -8 -9 -27 27 -43 82 -12 38 3 24 21 -20z m173 21 c26 -48 -23
-104 -69 -80 -24 13 -30 68 -9 89 20 20 66 15 78 -9z m50 -24 c0 -42 2 -45 27
-45 19 0 24 -3 16 -11 -6 -6 -21 -9 -34 -7 -21 3 -24 9 -27 56 -2 31 1 52 7
52 6 0 11 -20 11 -45z m90 -1 c0 -41 2 -45 23 -42 18 2 23 10 25 46 3 46 22
59 22 15 0 -68 -27 -96 -70 -73 -15 8 -20 21 -20 55 0 25 5 45 10 45 6 0 10
-21 10 -46z m158 39 c-14 -3 -18 -15 -18 -49 0 -24 -4 -44 -10 -44 -5 0 -10
20 -10 44 0 34 -4 46 -17 49 -10 3 2 5 27 5 25 0 37 -2 28 -5z m49 -70 c-2
-16 -4 -3 -4 27 0 30 2 43 4 28 2 -16 2 -40 0 -55z m123 56 c15 -27 5 -66 -20
-79 -48 -26 -95 30 -65 76 20 31 70 33 85 3z m72 -16 l23 -38 3 38 c2 20 7 37
13 37 12 0 12 -97 0 -104 -5 -4 -20 11 -33 31 l-23 38 -3 -32 c-5 -52 -22 -38
-22 17 0 28 4 50 9 50 5 0 20 -17 33 -37z m146 -13 c12 -27 16 -50 11 -50 -5
0 -12 7 -15 15 -4 8 -15 15 -25 15 -11 0 -22 -7 -25 -15 -4 -8 -10 -15 -15
-15 -4 0 -2 18 6 41 27 76 35 77 63 9z m129 34 c3 -8 1 -20 -5 -26 -8 -8 -8
-17 -1 -30 6 -11 8 -24 6 -31 -2 -7 -10 0 -17 16 -16 32 -50 37 -50 7 0 -11
-4 -20 -10 -20 -5 0 -10 23 -10 50 l0 50 40 0 c28 0 43 -5 47 -16z m53 -6 l17
-22 12 22 c6 12 16 22 22 22 6 0 1 -13 -10 -29 -12 -16 -21 -40 -22 -53 -1
-19 -2 -18 -10 8 -5 17 -16 37 -24 44 -15 12 -20 30 -9 30 3 0 14 -10 24 -22z
m210 7 c15 -18 7 -19 -19 -3 -30 19 -53 3 -49 -34 3 -34 23 -46 56 -33 16 6
15 8 -2 21 -19 14 -19 14 2 14 34 0 30 -46 -4 -54 -53 -14 -90 36 -64 85 13
23 62 26 80 4z m111 -32 c21 -48 21 -84 0 -45 -14 26 -46 29 -55 6 -4 -9 -9
-14 -12 -11 -8 8 27 97 38 97 5 0 18 -21 29 -47z m83 9 c12 -42 22 -40 30 3
11 56 36 46 36 -15 0 -30 -4 -50 -11 -50 -7 0 -10 12 -7 30 6 39 0 38 -14 0
-13 -38 -28 -34 -44 11 l-12 34 -4 -40 c-4 -36 -5 -35 -6 13 -2 61 16 68 32
14z m139 31 c-40 -5 -46 -33 -8 -33 14 0 25 -4 25 -10 0 -5 -11 -10 -25 -10
-16 0 -25 -6 -25 -15 0 -10 10 -15 30 -15 17 0 30 -5 30 -11 0 -6 -16 -9 -37
-7 l-38 3 -3 53 -3 52 43 -2 c37 -1 38 -2 11 -5z"/>
<path d="M1433 1110 c-13 -15 -23 -31 -23 -34 0 -3 20 -6 45 -6 25 0 45 -4 45
-10 0 -6 -28 -10 -62 -10 -60 0 -64 -2 -85 -33 -47 -69 -50 -67 96 -67 81 0
131 -4 131 -10 0 -6 -50 -10 -130 -10 -71 0 -130 -4 -130 -8 0 -5 14 -28 30
-50 30 -41 31 -42 90 -42 33 0 60 -4 60 -10 0 -5 -20 -10 -45 -10 -25 0 -45
-4 -45 -8 0 -5 14 -21 31 -38 l31 -29 44 50 c78 88 79 85 -36 85 -60 0 -100 4
-100 10 0 6 43 10 110 10 l110 0 11 27 c7 19 7 35 0 50 -10 22 -16 23 -115 23
-59 0 -108 4 -111 10 -4 6 30 10 94 10 56 0 101 3 101 8 0 13 -101 122 -113
121 -7 0 -22 -13 -34 -29z"/>
<path d="M3805 1000 c-15 -45 -25 -83 -22 -86 2 -3 32 -4 64 -2 l60 3 -31 83
c-17 45 -33 82 -37 82 -3 0 -18 -36 -34 -80z"/>
<path d="M4150 1050 l0 -60 73 0 c84 0 111 17 105 66 -4 38 -38 54 -115 54
l-63 0 0 -60z"/>
<path d="M4152 853 l3 -68 71 1 c91 0 124 19 124 69 0 50 -27 65 -123 65 l-78
0 3 -67z"/>
<path d="M2681 606 c-8 -10 -11 -26 -7 -42 5 -20 12 -25 34 -22 24 3 27 7 27
38 0 28 -4 36 -21 38 -11 2 -26 -4 -33 -12z"/>
<path d="M3151 606 c-8 -10 -11 -26 -7 -42 5 -20 12 -25 34 -22 24 3 27 7 27
38 0 28 -4 36 -21 38 -11 2 -26 -4 -33 -12z"/>
<path d="M3397 590 c-3 -13 0 -20 9 -20 15 0 19 26 5 34 -5 3 -11 -3 -14 -14z"/>
<path d="M3500 599 c0 -15 5 -20 22 -17 34 5 37 38 4 38 -20 0 -26 -5 -26 -21z"/>
<path d="M3907 603 c-12 -12 -7 -33 8 -33 17 0 19 9 7 28 -5 7 -11 9 -15 5z"/>
</g>
</svg>
